<svg version="1.1" id="Layer_1" xmlns="http://www.w3.org/2000/svg" xmlns:xlink="http://www.w3.org/1999/xlink" x="0px" y="0px"
	 width="100%" viewBox="0 0 128 128" enable-background="new 0 0 128 128" xml:space="preserve">
<path fill="#FBFBFB" opacity="1.000000" stroke="none" 
	d="
M84.000000,129.000000 
	C56.000000,129.000000 28.500000,129.000000 1.000000,129.000000 
	C1.000000,86.333336 1.000000,43.666668 1.000000,1.000000 
	C43.666668,1.000000 86.333336,1.000000 129.000000,1.000000 
	C129.000000,43.666668 129.000000,86.333336 129.000000,129.000000 
	C114.166664,129.000000 99.333336,129.000000 84.000000,129.000000 
M75.812462,56.630451 
	C74.109604,59.402420 72.325005,62.127934 70.718613,64.954712 
	C64.969749,75.071037 59.538105,85.000793 61.858429,97.642799 
	C63.802395,108.234238 69.822838,114.818558 80.699219,115.127113 
	C85.854874,115.273369 91.017433,115.193954 96.176826,115.187805 
	C111.280487,115.169785 120.172531,104.619102 117.541939,89.558876 
	C117.306587,88.211494 115.521355,86.376381 114.202896,86.131805 
	C111.304810,85.594223 108.167038,85.528572 105.284760,86.085762 
	C103.924583,86.348724 102.066208,88.389206 101.901421,89.796196 
	C100.512161,101.657326 100.614342,101.670471 88.677223,101.641495 
	C87.512421,101.638664 86.345238,101.652275 85.183327,101.585701 
	C79.333778,101.250504 77.812691,99.773773 77.810661,93.948883 
	C77.806267,81.301453 77.916168,68.653976 78.448212,55.693241 
	C78.275772,55.216572 78.103340,54.739902 77.930908,54.263229 
	C77.281998,54.827641 76.633087,55.392052 75.812462,56.630451 
M69.767937,39.054508 
	C69.761391,45.385284 69.754845,51.716061 69.323479,58.382294 
	C69.590363,58.851639 69.857246,59.320988 70.124130,59.790329 
	C70.479172,59.350697 70.834213,58.911064 71.547722,57.841434 
	C74.406647,52.806667 76.904816,47.519264 80.211189,42.797844 
	C84.874992,36.138039 86.155655,28.952682 85.727119,21.055424 
	C85.524475,17.320944 84.492912,15.508670 80.496452,15.693460 
	C75.839989,15.908770 71.162872,15.860474 66.501190,15.716780 
	C63.333988,15.619152 61.754749,16.831944 60.849625,19.977232 
	C57.258381,32.456741 53.409428,44.862240 49.628967,57.286949 
	C49.175186,58.778336 48.556381,60.219513 48.014057,61.683964 
	C46.193268,59.677444 45.481533,57.709728 44.873516,55.710468 
	C41.288769,43.923336 37.577461,32.171146 34.249668,20.311531 
	C33.228523,16.672361 31.377886,15.525126 27.864170,15.696786 
	C23.707388,15.899864 19.516941,15.997646 15.372217,15.703062 
	C11.041526,15.395262 9.594621,16.877949 9.635952,21.342762 
	C9.839574,43.338898 9.652327,65.338310 9.749688,87.335915 
	C9.797171,98.064064 7.864740,96.824631 19.645725,97.154442 
	C23.983450,97.275871 25.479771,95.892784 25.413006,91.474152 
	C25.161255,74.812286 25.237408,58.145466 25.192085,41.480499 
	C25.187445,39.774483 25.191462,38.068443 25.191462,36.362419 
	C25.698727,36.295441 26.205994,36.228462 26.713259,36.161484 
	C29.918634,46.551376 33.016918,56.975872 36.359467,67.321449 
	C39.709591,77.690475 42.088360,88.420364 47.310436,98.460930 
	C56.513290,78.793274 61.025303,57.967690 68.515152,38.045963 
	C68.898315,38.077934 69.281471,38.109901 69.767937,39.054508 
M88.467751,34.960434 
	C86.234055,38.903084 84.000359,42.845737 81.341354,47.539093 
	C84.428032,47.539093 86.384987,47.543110 88.341934,47.537968 
	C90.337845,47.532726 92.337463,47.592846 94.328888,47.493103 
	C98.831604,47.267578 100.898911,49.368553 101.473930,53.844524 
	C102.648392,62.986687 102.799934,62.967751 112.115219,62.799046 
	C112.946304,62.783993 113.961945,63.050926 114.568275,62.670769 
	C115.705894,61.957500 117.221466,61.026543 117.512543,59.908295 
	C121.119751,46.050171 111.677025,34.127457 97.262947,33.912788 
	C95.182549,33.881802 93.117241,32.837086 90.317604,32.059467 
	C90.238060,32.180805 89.536636,33.250710 88.467751,34.960434 
z"/>
<path fill="#3E3E3E" opacity="1.000000" stroke="none" 
	d="
M69.748291,58.046837 
	C69.754845,51.716061 69.761391,45.385284 69.862564,38.248604 
	C69.728523,36.677338 69.499870,35.911972 68.870857,33.806538 
	C68.348122,36.141449 68.144386,37.051449 67.940659,37.961449 
	C61.025303,57.967690 56.513290,78.793274 47.310436,98.460930 
	C42.088360,88.420364 39.709591,77.690475 36.359467,67.321449 
	C33.016918,56.975872 29.918634,46.551376 26.713259,36.161484 
	C26.205994,36.228462 25.698727,36.295441 25.191462,36.362419 
	C25.191462,38.068443 25.187445,39.774483 25.192085,41.480499 
	C25.237408,58.145466 25.161255,74.812286 25.413006,91.474152 
	C25.479771,95.892784 23.983450,97.275871 19.645725,97.154442 
	C7.864740,96.824631 9.797171,98.064064 9.749688,87.335915 
	C9.652327,65.338310 9.839574,43.338898 9.635952,21.342762 
	C9.594621,16.877949 11.041526,15.395262 15.372217,15.703062 
	C19.516941,15.997646 23.707388,15.899864 27.864170,15.696786 
	C31.377886,15.525126 33.228523,16.672361 34.249668,20.311531 
	C37.577461,32.171146 41.288769,43.923336 44.873516,55.710468 
	C45.481533,57.709728 46.193268,59.677444 48.014057,61.683964 
	C48.556381,60.219513 49.175186,58.778336 49.628967,57.286949 
	C53.409428,44.862240 57.258381,32.456741 60.849625,19.977232 
	C61.754749,16.831944 63.333988,15.619152 66.501190,15.716780 
	C71.162872,15.860474 75.839989,15.908770 80.496452,15.693460 
	C84.492912,15.508670 85.524475,17.320944 85.727119,21.055424 
	C86.155655,28.952682 84.874992,36.138039 80.211189,42.797844 
	C76.904816,47.519264 74.406647,52.806667 71.007263,58.053444 
	C70.227295,58.192577 69.987793,58.119709 69.748291,58.046837 
z"/>
<path fill="#404040" opacity="1.000000" stroke="none" 
	d="
M77.979340,56.006523 
	C77.916168,68.653976 77.806267,81.301453 77.810661,93.948883 
	C77.812691,99.773773 79.333778,101.250504 85.183327,101.585701 
	C86.345238,101.652275 87.512421,101.638664 88.677223,101.641495 
	C100.614342,101.670471 100.512161,101.657326 101.901421,89.796196 
	C102.066208,88.389206 103.924583,86.348724 105.284760,86.085762 
	C108.167038,85.528572 111.304810,85.594223 114.202896,86.131805 
	C115.521355,86.376381 117.306587,88.211494 117.541939,89.558876 
	C120.172531,104.619102 111.280487,115.169785 96.176826,115.187805 
	C91.017433,115.193954 85.854874,115.273369 80.699219,115.127113 
	C69.822838,114.818558 63.802395,108.234238 61.858429,97.642799 
	C59.538105,85.000793 64.969749,75.071037 70.718613,64.954712 
	C72.325005,62.127934 74.109604,59.402420 76.230881,56.259064 
	C77.092636,55.927292 77.535988,55.966908 77.979340,56.006523 
z"/>
<path fill="#424242" opacity="1.000000" stroke="none" 
	d="
M88.651482,34.640526 
	C89.536636,33.250710 90.238060,32.180805 90.317604,32.059467 
	C93.117241,32.837086 95.182549,33.881802 97.262947,33.912788 
	C111.677025,34.127457 121.119751,46.050171 117.512543,59.908295 
	C117.221466,61.026543 115.705894,61.957500 114.568275,62.670769 
	C113.961945,63.050926 112.946304,62.783993 112.115219,62.799046 
	C102.799934,62.967751 102.648392,62.986687 101.473930,53.844524 
	C100.898911,49.368553 98.831604,47.267578 94.328888,47.493103 
	C92.337463,47.592846 90.337845,47.532726 88.341934,47.537968 
	C86.384987,47.543110 84.428032,47.539093 81.341354,47.539093 
	C84.000359,42.845737 86.234055,38.903084 88.651482,34.640526 
z"/>
<path fill="#BCBCBC" opacity="1.000000" stroke="none" 
	d="
M68.227905,38.003708 
	C68.144386,37.051449 68.348122,36.141449 68.870857,33.806538 
	C69.499870,35.911972 69.728523,36.677338 69.810913,37.792286 
	C69.281471,38.109901 68.898315,38.077934 68.227905,38.003708 
z"/>
<path fill="#DBDBDB" opacity="1.000000" stroke="none" 
	d="
M78.213776,55.849884 
	C77.535988,55.966908 77.092636,55.927292 76.316734,55.922066 
	C76.633087,55.392052 77.281998,54.827641 77.930908,54.263229 
	C78.103340,54.739902 78.275772,55.216572 78.213776,55.849884 
z"/>
<path fill="#BCBCBC" opacity="1.000000" stroke="none" 
	d="
M69.535889,58.214565 
	C69.987793,58.119709 70.227295,58.192577 70.828026,58.368439 
	C70.834213,58.911064 70.479172,59.350697 70.124130,59.790329 
	C69.857246,59.320988 69.590363,58.851639 69.535889,58.214565 
z"/>
</svg>